<?xml version="1.0" standalone="no"?><svg xmlns="http://www.w3.org/2000/svg" viewBox="0 0 1440 320"><path fill="#0099ff" fill-opacity="1" d="M0,192L34.3,176C68.6,160,137,128,206,122.7C274.3,117,343,139,411,133.3C480,128,549,96,617,101.3C685.7,107,754,149,823,149.3C891.4,149,960,107,1029,117.3C1097.1,128,1166,192,1234,213.3C1302.9,235,1371,213,1406,202.7L1440,192L1440,0L1405.7,0C1371.4,0,1303,0,1234,0C1165.7,0,1097,0,1029,0C960,0,891,0,823,0C754.3,0,686,0,617,0C548.6,0,480,0,411,0C342.9,0,274,0,206,0C137.1,0,69,0,34,0L0,0Z"></path></svg>