<svg id="visual" viewBox="0 0 900 450" width="900" height="450" xmlns="http://www.w3.org/2000/svg" xmlns:xlink="http://www.w3.org/1999/xlink" version="1.1"><path d="M0 92L21.5 89.7C43 87.3 86 82.7 128.8 74C171.7 65.3 214.3 52.7 257.2 54.5C300 56.3 343 72.7 385.8 75.5C428.7 78.3 471.3 67.7 514.2 63.3C557 59 600 61 642.8 65.8C685.7 70.7 728.3 78.3 771.2 81.2C814 84 857 82 878.5 81L900 80L900 0L878.5 0C857 0 814 0 771.2 0C728.3 0 685.7 0 642.8 0C600 0 557 0 514.2 0C471.3 0 428.7 0 385.8 0C343 0 300 0 257.2 0C214.3 0 171.7 0 128.8 0C86 0 43 0 21.5 0L0 0Z" fill="#0066FF" stroke-linecap="round" stroke-linejoin="miter"></path></svg>