<?xml version="1.0" standalone="no"?>
<svg xmlns="http://www.w3.org/2000/svg" viewBox="0 0 1440 320">
<path fill="#2563eb" fill-opacity="1" d="M0,192L34.3,197.3C68.6,203,137,213,206,192C274.3,171,343,117,411,128C480,139,549,213,617,213.3C685.7,213,754,139,823,122.7C891.4,107,960,149,1029,144C1097.1,139,1166,85,1234,74.7C1302.9,64,1371,96,1406,112L1440,128L1440,0L1405.7,0C1371.4,0,1303,0,1234,0C1165.7,0,1097,0,1029,0C960,0,891,0,823,0C754.3,0,686,0,617,0C548.6,0,480,0,411,0C342.9,0,274,0,206,0C137.1,0,69,0,34,0L0,0Z">
</path>
</svg>